<svg id="evh5IQaEDLs1" xmlns="http://www.w3.org/2000/svg" xmlns:xlink="http://www.w3.org/1999/xlink" viewBox="0 0 300 110" shape-rendering="geometricPrecision" text-rendering="geometricPrecision"><defs><linearGradient id="evh5IQaEDLs2-stroke" x1="0" y1="0.5" x2="1" y2="0.5" spreadMethod="pad" gradientUnits="objectBoundingBox" gradientTransform="translate(0 0)"><stop id="evh5IQaEDLs2-stroke-0" offset="0%" stop-color="#f00"/><stop id="evh5IQaEDLs2-stroke-1" offset="47%" stop-color="#c100ff"/></linearGradient></defs><path d="M-0.000006,34.313131L33.333327,0h266.666672l-.000005,75.525253L270.303024,110h-270.303028l-.000002-75.686869Z" transform="matrix(.970371 0 0 0.923416 4.444356 4.21212)" fill="none" stroke="url(#evh5IQaEDLs2-stroke)" stroke-width="3"/><rect width="18.383838" height="5.050506" rx="1" ry="1" transform="matrix(1.100312 0-.276617 0.76 234.311823 7.858586)" fill="#fb0505" stroke-width="0"/><rect width="18.383838" height="5.050506" rx="1" ry="1" transform="matrix(1.100312 0-.276617 0.76 243.727273 97.757576)" fill="#fb05e4" stroke-width="0"/><rect width="18.383838" height="5.050506" rx="1" ry="1" transform="matrix(1.896138 0-.276617 0.76 257.531532 7.858586)" fill="#fb0505" stroke-width="0"/><rect width="18.383838" height="5.050506" rx="1" ry="1" transform="matrix(1.896138 0-.276617 0.76 206.471921 97.757576)" fill="#fb05e4" stroke-width="0"/><rect width="18.383838" height="5.050506" rx="1" ry="1" transform="matrix(.23401 0-4.929122 4.759998 36.135183 10.777778)" fill="#ad05fb" stroke-width="0"/></svg>
