<svg version="1.1" id="Layer_1" xmlns="http://www.w3.org/2000/svg" xmlns:xlink="http://www.w3.org/1999/xlink" x="0px" y="0px"
	 width="100%" viewBox="0 0 512 512" enable-background="new 0 0 512 512" xml:space="preserve">
<path fill="#F0F0F0" opacity="1.000000" stroke="none" 
	d="
M289.000000,513.000000 
	C267.979095,513.000000 246.958206,513.000000 225.782288,512.639343 
	C224.787949,511.853577 223.992371,511.225464 223.102753,511.033783 
	C209.257278,508.050751 195.254166,505.673309 181.580109,502.051239 
	C162.723068,497.056213 145.068207,488.901398 128.264282,479.010376 
	C111.577660,469.188354 95.864594,458.022156 81.956665,444.457397 
	C70.409348,433.194977 59.300209,421.588318 49.817879,408.433075 
	C35.716125,388.869141 24.098000,368.024597 16.033358,345.294800 
	C9.718869,327.497742 4.408164,309.419098 2.903306,290.441620 
	C2.861471,289.914093 1.660479,289.478455 1.000002,289.000000 
	C1.000000,267.645782 1.000000,246.291550 1.359703,224.776047 
	C2.130827,224.107986 2.814387,223.648499 2.911949,223.087173 
	C3.992246,216.871567 4.840383,210.613251 6.020029,204.417664 
	C11.237457,177.015320 21.259161,151.338547 35.334450,127.386261 
	C50.010002,102.412537 68.575958,80.545509 90.711372,61.726002 
	C109.654434,45.620632 130.302139,32.351631 153.109344,22.384464 
	C175.524170,12.588771 198.672592,5.593504 223.057312,2.922336 
	C223.766571,2.844642 224.355148,1.665552 225.000000,1.000001 
	C246.020889,1.000000 267.041779,1.000000 288.217651,1.361324 
	C289.212311,2.147266 290.008331,2.774480 290.898163,2.966186 
	C304.742889,5.948874 318.745575,8.325378 332.417511,11.951437 
	C350.163513,16.658020 366.806000,24.268150 382.821350,33.299229 
	C398.676819,42.240154 413.681091,52.479614 427.005157,64.759674 
	C440.419006,77.122475 453.167419,90.205452 463.900635,105.204712 
	C478.128113,125.087074 489.845795,146.162613 498.049347,169.199478 
	C504.337982,186.858963 509.493134,204.773483 511.096222,223.558762 
	C511.141479,224.089478 512.339478,224.521805 513.000000,225.000000 
	C513.000000,246.020889 513.000000,267.041779 512.638672,288.217590 
	C511.852753,289.212067 511.225189,290.007935 511.033630,290.897675 
	C508.053406,304.739685 505.681671,318.740265 502.055298,332.408661 
	C497.348175,350.150421 489.746490,366.794006 480.712036,382.803253 
	C471.772797,398.643799 461.665222,413.766174 449.245972,426.927612 
	C437.629303,439.238464 425.023804,450.792572 411.813171,461.381897 
	C391.740723,477.471588 369.196777,489.521851 344.834351,498.058655 
	C327.137604,504.259735 309.239532,509.506104 290.441284,511.096252 
	C289.910950,511.141113 289.478241,512.339478 289.000000,513.000000 
M171.385345,185.894501 
	C154.701355,206.358002 145.999603,229.719330 145.800797,256.190125 
	C145.367264,313.921783 189.501312,362.861023 246.535004,367.865082 
	C319.564514,374.272614 379.260498,310.819519 366.603943,238.780243 
	C358.537506,192.867096 330.956604,161.988510 285.854645,149.858902 
	C241.204819,137.850861 202.822449,150.925705 171.385345,185.894501 
z"/>
<path fill="#000000" opacity="1.000000" stroke="none" 
	d="
M1.000002,289.468658 
	C1.660479,289.478455 2.861471,289.914093 2.903306,290.441620 
	C4.408164,309.419098 9.718869,327.497742 16.033358,345.294800 
	C24.098000,368.024597 35.716125,388.869141 49.817879,408.433075 
	C59.300209,421.588318 70.409348,433.194977 81.956665,444.457397 
	C95.864594,458.022156 111.577660,469.188354 128.264282,479.010376 
	C145.068207,488.901398 162.723068,497.056213 181.580109,502.051239 
	C195.254166,505.673309 209.257278,508.050751 223.102753,511.033783 
	C223.992371,511.225464 224.787949,511.853577 225.313629,512.639343 
	C150.406296,513.000000 75.812599,513.000000 1.000000,513.000000 
	C1.000000,438.645905 1.000000,364.291626 1.000002,289.468658 
z"/>
<path fill="#000000" opacity="1.000000" stroke="none" 
	d="
M513.000000,224.531342 
	C512.339478,224.521805 511.141479,224.089478 511.096222,223.558762 
	C509.493134,204.773483 504.337982,186.858963 498.049347,169.199478 
	C489.845795,146.162613 478.128113,125.087074 463.900635,105.204712 
	C453.167419,90.205452 440.419006,77.122475 427.005157,64.759674 
	C413.681091,52.479614 398.676819,42.240154 382.821350,33.299229 
	C366.806000,24.268150 350.163513,16.658020 332.417511,11.951437 
	C318.745575,8.325378 304.742889,5.948874 290.898163,2.966186 
	C290.008331,2.774480 289.212311,2.147266 288.686340,1.361324 
	C363.593719,1.000000 438.187408,1.000000 513.000000,1.000000 
	C513.000000,75.354088 513.000000,149.708389 513.000000,224.531342 
z"/>
<path fill="#000000" opacity="1.000000" stroke="none" 
	d="
M289.468658,513.000000 
	C289.478241,512.339478 289.910950,511.141113 290.441284,511.096252 
	C309.239532,509.506104 327.137604,504.259735 344.834351,498.058655 
	C369.196777,489.521851 391.740723,477.471588 411.813171,461.381897 
	C425.023804,450.792572 437.629303,439.238464 449.245972,426.927612 
	C461.665222,413.766174 471.772797,398.643799 480.712036,382.803253 
	C489.746490,366.794006 497.348175,350.150421 502.055298,332.408661 
	C505.681671,318.740265 508.053406,304.739685 511.033630,290.897675 
	C511.225189,290.007935 511.852753,289.212067 512.638672,288.686249 
	C513.000000,363.593719 513.000000,438.187408 513.000000,513.000000 
	C438.645905,513.000000 364.291626,513.000000 289.468658,513.000000 
z"/>
<path fill="#000000" opacity="1.000000" stroke="none" 
	d="
M224.531342,1.000001 
	C224.355148,1.665552 223.766571,2.844642 223.057312,2.922336 
	C198.672592,5.593504 175.524170,12.588771 153.109344,22.384464 
	C130.302139,32.351631 109.654434,45.620632 90.711372,61.726002 
	C68.575958,80.545509 50.010002,102.412537 35.334450,127.386261 
	C21.259161,151.338547 11.237457,177.015320 6.020029,204.417664 
	C4.840383,210.613251 3.992246,216.871567 2.911949,223.087173 
	C2.814387,223.648499 2.130827,224.107986 1.359703,224.307388 
	C1.000000,149.739456 1.000000,75.478920 1.000000,1.000000 
	C75.354088,1.000000 149.708389,1.000000 224.531342,1.000001 
z"/>
<path fill="#D80027" opacity="1.000000" stroke="none" 
	d="
M171.623291,185.630249 
	C202.822449,150.925705 241.204819,137.850861 285.854645,149.858902 
	C330.956604,161.988510 358.537506,192.867096 366.603943,238.780243 
	C379.260498,310.819519 319.564514,374.272614 246.535004,367.865082 
	C189.501312,362.861023 145.367264,313.921783 145.800797,256.190125 
	C145.999603,229.719330 154.701355,206.358002 171.623291,185.630249 
z"/>
</svg>